<svg id="主体" xmlns="http://www.w3.org/2000/svg" viewBox="0 0 188.33 131.97"><defs><style>.cls-1{fill:#7f4f21;}.cls-2{fill:#22ac38;}.cls-3,.cls-8{fill:none;stroke-miterlimit:10;}.cls-3{stroke:#007fc5;stroke-width:11px;}.cls-4{fill:#c9caca;}.cls-5{fill:#dcdddd;}.cls-6{fill:#956134;}.cls-7{fill:#b28247;}.cls-8{stroke:#3e3a39;stroke-width:12px;}</style></defs><title>未标题-1</title><g id="图层_2" data-name="图层 2"><g id="底板"><path class="cls-1" d="M142.06,191.23l-94.17-42.8,0,14.09,94.17,42.8,94.14-42.8,0-14.09Z" transform="translate(-47.89 -75.87)"/><polygon class="cls-2" points="94.17 29.77 0 72.57 94.17 115.36 188.31 72.57 94.17 29.77"/></g><g id="河流"><path class="cls-3" d="M69.05,138.61c3.2,7,6.61,11.82,17.38,18.17s25.67,3.35,40.19,4.35,28.82,12.77,32.9,22" transform="translate(-47.89 -75.87)"/></g><g id="建筑"><polygon class="cls-4" points="47.06 51.2 141.24 94 188.31 72.57 188.31 64.54 141.24 85.97 47.06 43.18 47.06 51.2"/><polygon class="cls-5" points="182.43 61.87 141.24 80.63 52.95 40.5 47.06 43.18 141.24 85.97 188.31 64.54 182.43 61.87"/></g><g id="建筑-2" data-name="建筑"><g id="图层_9" data-name="图层 9"><polygon class="cls-6" points="149.01 54.65 122.51 66.72 122.51 24.89 149.01 54.65"/><polygon class="cls-7" points="94.26 53.87 122.51 66.72 122.51 24.89 94.26 53.87"/></g></g></g><g id="图层_3" data-name="图层 3"><path class="cls-8" d="M130.62,120.87c-.39,21.08,17,38.55,39,39,21.54.45,39-17.47,39-39a39,39,0,0,0-39-39C148.09,81.87,131,99.33,130.62,120.87Z" transform="translate(-47.89 -75.87)"/><line class="cls-8" x1="94.16" y1="72.58" x2="39.01" y2="127.72"/></g></svg>